<?xml version="1.0" standalone="no"?>
<!DOCTYPE svg PUBLIC "-//W3C//DTD SVG 20010904//EN"
 "http://www.w3.org/TR/2001/REC-SVG-20010904/DTD/svg10.dtd">
<svg version="1.0" xmlns="http://www.w3.org/2000/svg"
 width="439.000000pt" height="439.000000pt" viewBox="0 0 439.000000 439.000000"
 preserveAspectRatio="xMidYMid meet">
<metadata>
Created by potrace 1.11, written by Peter Selinger 2001-2013
</metadata>
<g transform="translate(0.000000,439.000000) scale(0.100000,-0.100000)"
fill="#000000" stroke="none">
<path d="M2128 4235 c-2 -2 -30 -6 -63 -10 -311 -32 -628 -145 -895 -320 -193
-126 -329 -252 -505 -466 -71 -86 -171 -250 -238 -391 -40 -83 -131 -347 -123
-355 3 -3 30 -1 61 5 121 20 263 -5 357 -64 22 -14 44 -22 48 -17 4 4 19 44
34 88 131 385 415 707 786 891 134 66 254 107 405 137 105 22 143 24 305 22
102 -1 196 -5 210 -9 13 -3 41 -8 62 -11 46 -7 175 -41 232 -60 54 -19 53 -19
54 13 1 47 21 119 47 175 30 62 114 161 156 183 16 8 29 18 29 22 0 20 -315
119 -435 136 -41 7 -71 11 -140 22 -41 6 -382 14 -387 9z"/>
<path d="M3229 3996 c-73 -28 -116 -56 -156 -99 -107 -116 -126 -267 -52 -414
l31 -61 -152 -214 c-84 -117 -154 -214 -155 -216 -2 -2 -27 8 -57 21 -127 59
-236 86 -373 90 -248 9 -493 -88 -681 -268 -30 -29 -107 -131 -137 -182 -57
-98 -103 -229 -120 -344 l-4 -24 -262 0 -262 0 -21 50 c-112 266 -448 335
-650 134 -163 -163 -152 -432 23 -583 80 -69 167 -97 278 -92 88 5 146 25 216
77 69 50 118 120 148 209 4 13 40 15 258 14 140 -1 259 -2 265 -3 6 0 14 -20
17 -43 37 -283 235 -554 498 -680 147 -71 271 -97 438 -93 163 4 317 52 473
146 l36 22 46 -49 c25 -27 46 -53 46 -58 0 -5 -11 -23 -24 -40 -24 -32 -88
-150 -95 -176 -44 -155 -52 -286 -25 -401 58 -250 248 -450 499 -524 79 -24
279 -30 336 -10 21 8 41 14 44 14 70 3 224 92 310 178 250 251 274 652 56 934
-102 131 -257 226 -425 260 -66 14 -217 12 -270 -2 -22 -6 -52 -13 -66 -16
-14 -2 -64 -23 -111 -46 l-85 -42 -48 53 -48 52 40 53 c156 201 219 429 189
680 -22 184 -114 379 -243 515 -30 31 -54 59 -54 62 0 4 43 68 86 125 8 11 45
63 82 115 148 209 140 200 168 189 39 -14 154 -13 201 4 105 36 180 104 225
203 34 74 32 208 -4 286 -33 71 -106 143 -178 177 -67 30 -194 39 -251 17z
m-814 -1311 c225 -59 383 -263 383 -495 0 -224 -136 -413 -352 -488 -181 -63
-404 -5 -531 137 -100 112 -139 216 -137 366 2 136 51 247 156 350 126 123
312 174 481 130z"/>
<path d="M2183 2546 c-152 -49 -256 -181 -268 -340 -3 -45 20 -148 44 -192 61
-117 186 -193 318 -194 86 -1 104 3 180 40 75 37 144 112 175 190 17 43 22 75
22 145 0 78 -4 98 -29 148 -31 62 -81 121 -132 156 -79 53 -222 75 -310 47z"/>
<path d="M3781 3495 c-42 -118 -138 -224 -250 -273 l-41 -19 45 -58 c66 -85
128 -187 179 -295 46 -99 102 -266 111 -335 3 -22 8 -46 11 -54 26 -78 26
-415 -1 -551 -19 -98 -29 -139 -46 -188 -10 -30 -19 -60 -19 -66 0 -6 28 -24
62 -41 104 -50 202 -130 282 -228 l39 -48 28 65 c30 71 85 238 94 283 2 15 9
43 14 61 5 18 10 35 10 37 -1 6 11 78 17 110 17 84 23 345 12 480 -28 321
-141 649 -319 925 -50 76 -190 259 -199 260 -3 0 -16 -29 -29 -65z"/>
<path d="M715 1739 c-27 -16 -72 -36 -100 -45 -61 -19 -205 -27 -264 -13 -24
5 -45 8 -47 6 -5 -5 21 -95 58 -197 147 -408 423 -758 795 -1009 84 -56 334
-191 356 -191 5 0 23 -6 40 -14 38 -17 213 -73 253 -81 245 -46 262 -48 454
-49 176 -1 294 6 361 20 13 2 44 9 69 14 25 5 56 12 69 14 20 5 89 23 154 42
14 5 5 19 -50 78 -77 83 -131 168 -170 271 -15 38 -28 72 -29 73 -2 2 -33 -3
-71 -12 -150 -33 -377 -38 -548 -11 -77 12 -137 25 -155 31 -8 3 -25 8 -37 10
-46 9 -212 77 -302 124 -281 149 -523 397 -665 685 -36 71 -75 162 -87 200
-12 39 -25 73 -28 77 -3 3 -28 -7 -56 -23z"/>
</g>
</svg>
